<svg width="405" height="563" viewBox="0 0 405 563" fill="none" xmlns="http://www.w3.org/2000/svg">
    <g clip-path="url(#clip0)">
        <path d="M340.079 -13.1861C259.529 172.938 126.919 302.882 28.6569 379.814C-67.5302 455.129 -149.885 495.142 -168.369 503.702L-165.674 506.414C-144.894 496.707 -63.7649 456.696 30.7782 382.73C66.4226 354.878 100.393 324.939 132.508 293.074C157.202 268.537 180.398 243.165 202.096 216.959C259.505 148.128 306.882 71.553 342.794 -10.4539L340.079 -13.1861Z" fill="#1C1005"/>
        <path style="mix-blend-mode:color-dodge" d="M169.331 263.252C167.411 261.368 166.098 258.952 165.558 256.309C165.019 253.666 165.277 250.915 166.3 248.404C167.324 245.894 169.066 243.736 171.307 242.205C173.548 240.674 176.187 239.838 178.89 239.802C181.592 239.767 184.237 240.534 186.49 242.007C188.743 243.48 190.502 245.591 191.544 248.075C192.587 250.559 192.867 253.302 192.348 255.959C191.829 258.616 190.534 261.067 188.629 263.001C187.368 264.286 185.868 265.312 184.215 266.021C182.562 266.729 180.788 267.106 178.995 267.129C177.203 267.152 175.427 266.822 173.768 266.157C172.11 265.492 170.602 264.505 169.331 263.252Z" fill="url(#paint0_radial)"/>
        <path style="mix-blend-mode:color-dodge" opacity="0.1" d="M169.331 263.252C167.411 261.368 166.098 258.952 165.558 256.309C165.019 253.666 165.277 250.915 166.3 248.404C167.324 245.894 169.066 243.736 171.307 242.205C173.548 240.674 176.187 239.838 178.89 239.802C181.592 239.767 184.237 240.534 186.49 242.007C188.743 243.48 190.502 245.591 191.544 248.075C192.587 250.559 192.867 253.302 192.348 255.959C191.829 258.616 190.534 261.067 188.629 263.001C187.368 264.286 185.868 265.312 184.215 266.021C182.562 266.729 180.788 267.106 178.995 267.129C177.203 267.152 175.427 266.822 173.768 266.157C172.11 265.492 170.602 264.505 169.331 263.252Z" fill="url(#paint1_radial)"/>
        <path d="M172.728 249.179C172.875 248.792 173.104 248.44 173.399 248.147C173.693 247.854 174.047 247.628 174.435 247.482C174.686 247.399 174.954 247.387 175.21 247.448C175.466 247.509 175.699 247.641 175.883 247.827L176.835 248.786L174.057 251.546L173.125 250.608C172.935 250.43 172.798 250.202 172.728 249.951C172.658 249.699 172.658 249.432 172.728 249.179Z" fill="url(#paint2_linear)"/>
        <path d="M174.6 257.814C173.766 256.982 173.2 255.919 172.973 254.76C172.746 253.6 172.869 252.397 173.327 251.301C173.784 250.205 174.555 249.267 175.542 248.605C176.529 247.944 177.688 247.588 178.872 247.583C180.055 247.579 181.21 247.926 182.19 248.58C183.17 249.234 183.932 250.167 184.377 251.259C184.823 252.351 184.933 253.554 184.694 254.715C184.455 255.876 183.877 256.943 183.034 257.781C181.908 258.9 180.388 259.532 178.808 259.538C177.227 259.544 175.715 258.924 174.6 257.814Z" fill="#EBF1CF"/>
        <path d="M154.966 269.867C155.095 269.469 155.317 269.107 155.615 268.812C155.912 268.517 156.275 268.296 156.674 268.17C156.918 268.074 157.185 268.054 157.44 268.112C157.694 268.17 157.925 268.303 158.101 268.495L159.033 269.433L156.193 272.254L155.261 271.317C155.077 271.131 154.95 270.895 154.898 270.638C154.846 270.38 154.869 270.113 154.966 269.867Z" fill="url(#paint3_linear)"/>
        <path d="M156.839 278.502C155.999 277.673 155.427 276.612 155.195 275.453C154.964 274.293 155.082 273.087 155.536 271.989C155.99 270.891 156.759 269.949 157.745 269.284C158.731 268.618 159.89 268.259 161.075 268.251C162.26 268.244 163.417 268.589 164.399 269.242C165.381 269.895 166.145 270.827 166.592 271.92C167.04 273.013 167.151 274.217 166.913 275.379C166.674 276.542 166.096 277.61 165.252 278.449C164.129 279.565 162.616 280.196 161.04 280.206C159.465 280.216 157.955 279.603 156.839 278.502Z" fill="#FFD74F"/>
        <path style="mix-blend-mode:color-dodge" d="M151.223 283.798C149.311 281.906 148.008 279.484 147.48 276.838C146.952 274.193 147.221 271.443 148.255 268.936C149.289 266.43 151.041 264.28 153.288 262.758C155.536 261.236 158.178 260.411 160.881 260.387C163.583 260.363 166.225 261.142 168.471 262.624C170.718 264.106 172.468 266.226 173.5 268.714C174.532 271.202 174.8 273.947 174.269 276.602C173.739 279.257 172.434 281.702 170.521 283.628C169.254 284.908 167.75 285.927 166.094 286.629C164.438 287.33 162.663 287.699 160.871 287.715C159.078 287.731 157.303 287.393 155.648 286.721C153.993 286.049 152.489 285.055 151.223 283.798Z" fill="url(#paint4_radial)"/>
        <path style="mix-blend-mode:color-dodge" opacity="0.24" d="M151.223 283.798C149.311 281.906 148.008 279.484 147.48 276.838C146.952 274.193 147.221 271.443 148.255 268.936C149.289 266.43 151.041 264.28 153.288 262.758C155.536 261.236 158.178 260.411 160.881 260.387C163.583 260.363 166.225 261.142 168.471 262.624C170.718 264.106 172.468 266.226 173.5 268.714C174.532 271.202 174.8 273.947 174.269 276.602C173.739 279.257 172.434 281.702 170.521 283.628C169.254 284.908 167.75 285.927 166.094 286.629C164.438 287.33 162.663 287.699 160.871 287.715C159.078 287.731 157.303 287.393 155.648 286.721C153.993 286.049 152.489 285.055 151.223 283.798Z" fill="url(#paint5_radial)"/>
        <path d="M133.818 290.03C133.947 289.632 134.17 289.27 134.467 288.974C134.764 288.679 135.127 288.459 135.526 288.333C135.77 288.237 136.037 288.216 136.292 288.274C136.546 288.332 136.777 288.466 136.953 288.657L137.885 289.595L135.045 292.417L134.113 291.479C133.929 291.293 133.802 291.057 133.75 290.8C133.698 290.543 133.721 290.275 133.818 290.03Z" fill="url(#paint6_linear)"/>
        <path d="M135.691 298.664C134.852 297.836 134.28 296.774 134.048 295.615C133.816 294.455 133.935 293.25 134.389 292.151C134.842 291.053 135.611 290.111 136.598 289.446C137.584 288.78 138.743 288.421 139.928 288.413C141.112 288.406 142.269 288.751 143.252 289.404C144.234 290.057 144.997 290.989 145.445 292.082C145.892 293.175 146.004 294.379 145.765 295.541C145.527 296.704 144.948 297.772 144.104 298.611C142.982 299.727 141.468 300.358 139.893 300.368C138.317 300.378 136.807 299.765 135.691 298.664Z" fill="#8EFF2B"/>
        <path style="mix-blend-mode:color-dodge" d="M130.582 304.47C128.654 302.594 127.331 300.183 126.78 297.543C126.23 294.902 126.476 292.15 127.489 289.636C128.502 287.121 130.235 284.956 132.47 283.416C134.705 281.875 137.34 281.028 140.042 280.981C142.745 280.935 145.393 281.691 147.652 283.154C149.911 284.617 151.679 286.721 152.732 289.2C153.785 291.679 154.077 294.421 153.569 297.08C153.062 299.739 151.778 302.195 149.881 304.137C147.34 306.737 143.882 308.232 140.264 308.294C136.645 308.357 133.163 306.981 130.582 304.47Z" fill="url(#paint7_radial)"/>
        <path style="mix-blend-mode:color-dodge" opacity="0.1" d="M130.582 304.47C128.654 302.594 127.331 300.183 126.78 297.543C126.23 294.902 126.476 292.15 127.489 289.636C128.502 287.121 130.235 284.956 132.47 283.416C134.705 281.875 137.34 281.028 140.042 280.981C142.745 280.935 145.393 281.691 147.652 283.154C149.911 284.617 151.679 286.721 152.732 289.2C153.785 291.679 154.077 294.421 153.569 297.08C153.062 299.739 151.778 302.195 149.881 304.137C147.34 306.737 143.882 308.232 140.264 308.294C136.645 308.357 133.163 306.981 130.582 304.47Z" fill="url(#paint8_radial)"/>
        <path d="M114.558 309.086C114.69 308.685 114.916 308.319 115.217 308.021C115.517 307.722 115.884 307.499 116.287 307.369C116.533 307.287 116.796 307.274 117.047 307.332C117.299 307.389 117.529 307.514 117.713 307.694L118.645 308.631L115.806 311.453L114.894 310.536C114.708 310.351 114.579 310.117 114.519 309.861C114.46 309.605 114.473 309.337 114.558 309.086Z" fill="url(#paint9_linear)"/>
        <path d="M116.451 317.701C115.612 316.872 115.04 315.811 114.808 314.651C114.576 313.492 114.695 312.286 115.149 311.188C115.603 310.089 116.372 309.148 117.358 308.482C118.344 307.817 119.503 307.458 120.688 307.45C121.873 307.443 123.029 307.787 124.012 308.441C124.994 309.094 125.758 310.026 126.205 311.119C126.653 312.211 126.764 313.415 126.525 314.578C126.287 315.74 125.709 316.809 124.864 317.648C123.742 318.763 122.228 319.395 120.653 319.405C119.077 319.414 117.568 318.802 116.451 317.701Z" fill="#FF4242"/>
        <path style="mix-blend-mode:color-dodge" opacity="0.61" d="M111.693 323.077C109.862 321.258 108.616 318.932 108.113 316.393C107.61 313.854 107.873 311.217 108.868 308.813C109.863 306.41 111.546 304.349 113.704 302.891C115.861 301.434 118.397 300.644 120.99 300.624C123.583 300.603 126.117 301.351 128.271 302.775C130.426 304.198 132.104 306.232 133.093 308.619C134.083 311.007 134.339 313.64 133.83 316.187C133.322 318.734 132.07 321.08 130.235 322.928C129.018 324.159 127.572 325.139 125.98 325.813C124.388 326.487 122.682 326.841 120.959 326.854C119.237 326.868 117.531 326.542 115.941 325.893C114.351 325.245 112.907 324.288 111.693 323.077Z" fill="url(#paint10_radial)"/>
        <path style="mix-blend-mode:color-dodge" opacity="0.3" d="M111.693 323.077C109.862 321.258 108.616 318.932 108.113 316.393C107.61 313.854 107.873 311.217 108.868 308.813C109.863 306.41 111.546 304.349 113.704 302.891C115.861 301.434 118.397 300.644 120.99 300.624C123.583 300.603 126.117 301.351 128.271 302.775C130.426 304.198 132.104 306.232 133.093 308.619C134.083 311.007 134.339 313.64 133.83 316.187C133.322 318.734 132.07 321.08 130.235 322.928C129.018 324.159 127.572 325.139 125.98 325.813C124.388 326.487 122.682 326.841 120.959 326.854C119.237 326.868 117.531 326.542 115.941 325.893C114.351 325.245 112.907 324.288 111.693 323.077Z" fill="url(#paint11_radial)"/>
        <path d="M94.8611 326.551C95.0088 326.164 95.2377 325.812 95.5323 325.519C95.827 325.226 96.1806 324.999 96.569 324.854C96.8211 324.768 97.0915 324.752 97.3504 324.81C97.6094 324.867 97.8469 324.995 98.0367 325.179L98.9889 326.137L96.1697 328.939L95.2378 328.001C95.0478 327.818 94.9123 327.586 94.8458 327.331C94.7794 327.075 94.7847 326.805 94.8611 326.551Z" fill="url(#paint12_linear)"/>
        <path d="M96.7338 335.186C95.8993 334.354 95.3329 333.291 95.1061 332.132C94.8793 330.972 95.0025 329.769 95.4599 328.673C95.9174 327.577 96.6885 326.639 97.6757 325.977C98.6629 325.316 99.8216 324.96 101.005 324.955C102.189 324.951 103.344 325.298 104.324 325.952C105.304 326.606 106.065 327.539 106.511 328.631C106.956 329.723 107.067 330.926 106.827 332.087C106.588 333.248 106.01 334.315 105.167 335.153C104.041 336.272 102.521 336.904 100.941 336.91C99.3607 336.916 97.848 336.296 96.7338 335.186Z" fill="#00F0E0"/>
        <path style="mix-blend-mode:color-dodge" d="M91.3617 340.726C89.4414 338.842 88.1284 336.426 87.5889 333.783C87.0494 331.14 87.3077 328.389 88.3311 325.878C89.3545 323.368 91.0969 321.21 93.3379 319.679C95.579 318.148 98.2178 317.312 100.92 317.276C103.623 317.241 106.268 318.008 108.521 319.481C110.773 320.954 112.532 323.065 113.575 325.549C114.618 328.033 114.897 330.777 114.378 333.433C113.859 336.09 112.565 338.541 110.66 340.475C109.398 341.76 107.898 342.786 106.245 343.495C104.592 344.203 102.819 344.58 101.026 344.603C99.2336 344.626 97.4573 344.296 95.7989 343.631C94.1406 342.966 92.6327 341.979 91.3617 340.726Z" fill="url(#paint13_radial)"/>
        <path style="mix-blend-mode:color-dodge" d="M91.3617 340.726C89.4414 338.842 88.1284 336.426 87.5889 333.783C87.0494 331.14 87.3077 328.389 88.3311 325.878C89.3545 323.368 91.0969 321.21 93.3379 319.679C95.579 318.148 98.2178 317.312 100.92 317.276C103.623 317.241 106.268 318.008 108.521 319.481C110.773 320.954 112.532 323.065 113.575 325.549C114.618 328.033 114.897 330.777 114.378 333.433C113.859 336.09 112.565 338.541 110.66 340.475C109.398 341.76 107.898 342.786 106.245 343.495C104.592 344.203 102.819 344.58 101.026 344.603C99.2336 344.626 97.4573 344.296 95.7989 343.631C94.1406 342.966 92.6327 341.979 91.3617 340.726Z" fill="url(#paint14_radial)"/>
        <path style="mix-blend-mode:color-dodge" d="M67.7539 359.524C66.0766 357.427 65.0627 354.874 64.8399 352.188C64.617 349.501 65.1953 346.802 66.5018 344.43C67.8083 342.058 69.7844 340.119 72.181 338.859C74.5776 337.598 77.2874 337.072 79.9685 337.347C82.6496 337.622 85.182 338.685 87.2463 340.403C89.3106 342.121 90.8144 344.416 91.568 346.999C92.3216 349.582 92.2912 352.338 91.4808 354.918C90.6703 357.498 89.1161 359.788 87.014 361.498C85.6121 362.643 83.9995 363.502 82.2694 364.023C80.5394 364.544 78.7263 364.718 76.9351 364.534C75.1439 364.35 73.4102 363.813 71.8342 362.953C70.2583 362.093 68.8714 360.928 67.7539 359.524Z" fill="url(#paint15_radial)"/>
        <path style="mix-blend-mode:color-dodge" opacity="0.1" d="M67.7539 359.524C66.0766 357.427 65.0627 354.874 64.8399 352.188C64.617 349.501 65.1953 346.802 66.5018 344.43C67.8083 342.058 69.7844 340.119 72.181 338.859C74.5776 337.598 77.2874 337.072 79.9685 337.347C82.6496 337.622 85.182 338.685 87.2463 340.403C89.3106 342.121 90.8144 344.416 91.568 346.999C92.3216 349.582 92.2912 352.338 91.4808 354.918C90.6703 357.498 89.1161 359.788 87.014 361.498C85.6121 362.643 83.9995 363.502 82.2694 364.023C80.5394 364.544 78.7263 364.718 76.9351 364.534C75.1439 364.35 73.4102 363.813 71.8342 362.953C70.2583 362.093 68.8714 360.928 67.7539 359.524Z" fill="url(#paint16_radial)"/>
        <path d="M72.9035 345.857C73.082 345.477 73.3455 345.143 73.6734 344.88C74.0013 344.618 74.3848 344.434 74.7938 344.343C75.0483 344.293 75.3112 344.311 75.5548 344.397C75.7984 344.483 76.0139 344.633 76.1785 344.831L77.0076 345.872L73.9257 348.326L73.0139 347.409C72.8457 347.191 72.7456 346.927 72.726 346.652C72.7064 346.376 72.7681 346.1 72.9035 345.857Z" fill="url(#paint17_linear)"/>
        <path d="M73.7542 354.656C73.0342 353.733 72.6057 352.616 72.5228 351.444C72.4399 350.272 72.7063 349.099 73.2884 348.072C73.8705 347.046 74.7421 346.212 75.7933 345.676C76.8444 345.14 78.028 344.926 79.1945 345.061C80.361 345.196 81.4582 345.674 82.3475 346.434C83.2368 347.195 83.8784 348.204 84.1912 349.334C84.5041 350.465 84.4741 351.665 84.1052 352.785C83.7363 353.904 83.0449 354.892 82.1184 355.624C80.869 356.602 79.2879 357.049 77.7207 356.867C76.1535 356.686 74.7275 355.891 73.7542 354.656Z" fill="#EBF1CF"/>
        <path d="M50.2478 365.654C50.4144 365.266 50.6743 364.924 51.0043 364.66C51.3342 364.396 51.7238 364.217 52.1382 364.14C52.3926 364.075 52.6599 364.087 52.9063 364.174C53.1526 364.261 53.3672 364.419 53.5229 364.628L54.4346 365.546L51.3115 368.041L50.3998 367.124C50.2412 366.918 50.143 366.671 50.1162 366.412C50.0894 366.153 50.1349 365.89 50.2478 365.654Z" fill="url(#paint18_linear)"/>
        <path d="M51.1194 374.392C50.3994 373.469 49.9709 372.351 49.8881 371.179C49.8052 370.008 50.0716 368.834 50.6536 367.808C51.2357 366.781 52.1073 365.947 53.1585 365.411C54.2097 364.875 55.3932 364.661 56.5597 364.796C57.7263 364.931 58.8234 365.409 59.7127 366.17C60.6021 366.931 61.2436 367.94 61.5565 369.07C61.8693 370.2 61.8394 371.401 61.4705 372.52C61.1015 373.64 60.4102 374.628 59.4837 375.36C58.2342 376.337 56.6532 376.784 55.0859 376.603C53.5187 376.421 52.0927 375.626 51.1194 374.392Z" fill="#FFD74F"/>
        <path style="mix-blend-mode:color-dodge" d="M44.9165 379.015C43.2381 376.91 42.2268 374.349 42.0109 371.655C41.7949 368.962 42.384 366.258 43.7035 363.885C45.023 361.513 47.0135 359.579 49.4228 358.329C51.8321 357.079 54.5518 356.568 57.2373 356.862C59.9227 357.157 62.4531 358.242 64.5077 359.981C66.5624 361.721 68.0488 364.036 68.7788 366.633C69.5088 369.23 69.4493 371.992 68.6081 374.569C67.7668 377.147 66.1816 379.424 64.0532 381.112C61.2081 383.358 57.6011 384.398 54.0172 384.005C50.4333 383.613 47.1625 381.819 44.9165 379.015Z" fill="url(#paint19_radial)"/>
        <path style="mix-blend-mode:color-dodge" opacity="0.24" d="M44.9165 379.015C43.2381 376.91 42.2268 374.349 42.0109 371.655C41.7949 368.962 42.384 366.258 43.7035 363.885C45.023 361.513 47.0135 359.579 49.4228 358.329C51.8321 357.079 54.5518 356.568 57.2373 356.862C59.9227 357.157 62.4531 358.242 64.5077 359.981C66.5624 361.721 68.0488 364.036 68.7788 366.633C69.5088 369.23 69.4493 371.992 68.6081 374.569C67.7668 377.147 66.1816 379.424 64.0532 381.112C61.2081 383.358 57.6011 384.398 54.0172 384.005C50.4333 383.613 47.1625 381.819 44.9165 379.015Z" fill="url(#paint20_radial)"/>
        <path d="M27.4007 383.817C27.5792 383.437 27.8427 383.103 28.1706 382.841C28.4985 382.578 28.882 382.394 29.291 382.304C29.5455 382.253 29.8084 382.271 30.052 382.357C30.2956 382.443 30.5111 382.593 30.6757 382.792L31.5048 383.832L28.3817 386.327L27.4497 385.389C27.2792 385.166 27.1829 384.895 27.1741 384.613C27.1653 384.332 27.2445 384.053 27.4007 383.817Z" fill="url(#paint21_linear)"/>
        <path d="M28.2304 392.637C27.5051 391.717 27.0711 390.6 26.9832 389.427C26.8953 388.254 27.1576 387.079 27.7368 386.049C28.316 385.019 29.1861 384.181 30.237 383.642C31.2878 383.102 32.4723 382.885 33.6405 383.018C34.8087 383.151 35.908 383.627 36.7995 384.388C37.691 385.148 38.3345 386.157 38.6485 387.289C38.9626 388.42 38.9332 389.622 38.564 390.743C38.1948 391.864 37.5024 392.853 36.5743 393.585C35.9605 394.074 35.2569 394.438 34.5042 394.655C33.7515 394.873 32.9646 394.939 32.1889 394.851C31.4132 394.763 30.664 394.522 29.9846 394.142C29.3052 393.762 28.709 393.251 28.2304 392.637Z" fill="#8EFF2B"/>
        <path style="mix-blend-mode:color-dodge" d="M22.4524 397.811C20.7641 395.716 19.7399 393.162 19.5093 390.472C19.2788 387.781 19.8522 385.075 21.1571 382.697C22.462 380.318 24.4397 378.374 26.8399 377.11C29.2401 375.846 31.9549 375.318 34.6408 375.595C37.3266 375.871 39.8627 376.939 41.9282 378.663C43.9937 380.387 45.4956 382.689 46.244 385.279C46.9923 387.869 46.9535 390.63 46.1323 393.212C45.3111 395.794 43.7445 398.082 41.6308 399.785C38.7982 402.058 35.1915 403.126 31.5982 402.757C28.0049 402.387 24.7169 400.609 22.4524 397.811Z" fill="url(#paint22_radial)"/>
        <path style="mix-blend-mode:color-dodge" opacity="0.1" d="M22.4524 397.811C20.7641 395.716 19.7399 393.162 19.5093 390.472C19.2788 387.781 19.8522 385.075 21.1571 382.697C22.462 380.318 24.4397 378.374 26.8399 377.11C29.2401 375.846 31.9549 375.318 34.6408 375.595C37.3266 375.871 39.8627 376.939 41.9282 378.663C43.9937 380.387 45.4956 382.689 46.244 385.279C46.9923 387.869 46.9535 390.63 46.1323 393.212C45.3111 395.794 43.7445 398.082 41.6308 399.785C38.7982 402.058 35.1915 403.126 31.5982 402.757C28.0049 402.387 24.7169 400.609 22.4524 397.811Z" fill="url(#paint23_radial)"/>
        <path d="M5.68494 400.938C5.86346 400.558 6.12696 400.224 6.45486 399.961C6.78276 399.699 7.16619 399.515 7.57525 399.424C7.8298 399.367 8.0947 399.382 8.3396 399.468C8.5845 399.555 8.79949 399.708 8.95994 399.912L9.89193 400.85L6.78944 403.325L5.85745 402.387C5.69639 402.187 5.59489 401.945 5.56441 401.689C5.53393 401.433 5.57568 401.173 5.68494 400.938Z" fill="url(#paint24_linear)"/>
        <path d="M6.61632 409.818C5.89103 408.898 5.457 407.781 5.36914 406.608C5.28128 405.435 5.54353 404.26 6.12272 403.23C6.70192 402.2 7.572 401.363 8.6229 400.823C9.6738 400.284 10.8583 400.066 12.0265 400.199C13.1946 400.332 14.294 400.808 15.1855 401.569C16.077 402.329 16.7204 403.338 17.0345 404.47C17.3486 405.601 17.3192 406.803 16.9499 407.924C16.5807 409.045 15.8883 410.034 14.9603 410.766C13.7175 411.747 12.1408 412.198 10.5763 412.02C9.01188 411.842 7.58763 411.051 6.61632 409.818Z" fill="#FF4242"/>
        <path style="mix-blend-mode:color-dodge" opacity="0.61" d="M1.16881 414.502C-0.43311 412.484 -1.3962 410.031 -1.59863 407.454C-1.80105 404.876 -1.23372 402.289 0.0316073 400.02C1.29693 397.751 3.20339 395.902 5.50979 394.708C7.81619 393.513 10.4189 393.026 12.9887 393.308C15.5584 393.59 17.9798 394.629 19.9463 396.293C21.9129 397.957 23.3364 400.171 24.0367 402.656C24.7369 405.14 24.6826 407.784 23.8804 410.251C23.0782 412.719 21.5643 414.9 19.5302 416.518C16.8021 418.679 13.3393 419.68 9.89874 419.302C6.45816 418.924 3.31954 417.198 1.16881 414.502Z" fill="url(#paint25_radial)"/>
        <path style="mix-blend-mode:color-dodge" opacity="0.3" d="M1.16881 414.502C-0.43311 412.484 -1.3962 410.031 -1.59863 407.454C-1.80105 404.876 -1.23372 402.289 0.0316073 400.02C1.29693 397.751 3.20339 395.902 5.50979 394.708C7.81619 393.513 10.4189 393.026 12.9887 393.308C15.5584 393.59 17.9798 394.629 19.9463 396.293C21.9129 397.957 23.3364 400.171 24.0367 402.656C24.7369 405.14 24.6826 407.784 23.8804 410.251C23.0782 412.719 21.5643 414.9 19.5302 416.518C16.8021 418.679 13.3393 419.68 9.89874 419.302C6.45816 418.924 3.31954 417.198 1.16881 414.502Z" fill="url(#paint26_radial)"/>
        <path style="mix-blend-mode:color-dodge" d="M-19.3959 428.007C-21.0742 425.903 -22.086 423.343 -22.3031 420.651C-22.5202 417.959 -21.9329 415.256 -20.6156 412.883C-19.2983 410.511 -17.3102 408.576 -14.903 407.324C-12.4958 406.072 -9.77779 405.559 -7.09306 405.85C-4.40832 406.141 -1.8776 407.223 0.178687 408.959C2.23497 410.694 3.72436 413.006 4.45828 415.601C5.1922 418.195 5.13765 420.957 4.30153 423.535C3.46541 426.113 1.88532 428.392 -0.238686 430.083C-3.08261 432.338 -6.69264 433.386 -10.2814 432.997C-13.8702 432.608 -17.1466 430.814 -19.3959 428.007Z" fill="url(#paint27_radial)"/>
        <path style="mix-blend-mode:color-dodge" d="M-19.3959 428.007C-21.0742 425.903 -22.086 423.343 -22.3031 420.651C-22.5202 417.959 -21.9329 415.256 -20.6156 412.883C-19.2983 410.511 -17.3102 408.576 -14.903 407.324C-12.4958 406.072 -9.77779 405.559 -7.09306 405.85C-4.40832 406.141 -1.8776 407.223 0.178687 408.959C2.23497 410.694 3.72436 413.006 4.45828 415.601C5.1922 418.195 5.13765 420.957 4.30153 423.535C3.46541 426.113 1.88532 428.392 -0.238686 430.083C-3.08261 432.338 -6.69264 433.386 -10.2814 432.997C-13.8702 432.608 -17.1466 430.814 -19.3959 428.007Z" fill="url(#paint28_radial)"/>
        <path style="mix-blend-mode:color-dodge" d="M258.168 153.665C256.012 152.052 254.389 149.831 253.505 147.284C252.621 144.736 252.516 141.977 253.202 139.355C253.889 136.733 255.337 134.366 257.362 132.556C259.388 130.745 261.899 129.571 264.58 129.184C267.26 128.796 269.987 129.211 272.417 130.377C274.846 131.543 276.868 133.408 278.226 135.734C279.584 138.06 280.218 140.743 280.046 143.443C279.874 146.144 278.905 148.74 277.261 150.902C275.072 153.796 271.831 155.712 268.25 156.23C264.67 156.748 261.044 155.825 258.168 153.665Z" fill="url(#paint29_radial)"/>
        <path style="mix-blend-mode:color-dodge" opacity="0.1" d="M258.168 153.665C256.012 152.052 254.389 149.831 253.505 147.284C252.621 144.736 252.516 141.977 253.202 139.355C253.889 136.733 255.337 134.366 257.362 132.556C259.388 130.745 261.899 129.571 264.58 129.184C267.26 128.796 269.987 129.211 272.417 130.377C274.846 131.543 276.868 133.408 278.226 135.734C279.584 138.06 280.218 140.743 280.046 143.443C279.874 146.144 278.905 148.74 277.261 150.902C275.072 153.796 271.831 155.712 268.25 156.23C264.67 156.748 261.044 155.825 258.168 153.665Z" fill="url(#paint30_radial)"/>
        <path d="M259.853 139.186C259.931 138.772 260.104 138.382 260.359 138.045C260.613 137.708 260.941 137.434 261.318 137.244C261.558 137.135 261.822 137.091 262.083 137.116C262.345 137.14 262.594 137.233 262.807 137.385L263.843 138.18L261.429 141.348L260.373 140.574C260.171 140.41 260.016 140.196 259.925 139.952C259.833 139.708 259.808 139.444 259.853 139.186Z" fill="url(#paint31_linear)"/>
        <path d="M262.831 147.451C261.906 146.734 261.217 145.756 260.85 144.642C260.484 143.528 260.457 142.327 260.774 141.192C261.09 140.056 261.734 139.037 262.626 138.262C263.518 137.487 264.617 136.992 265.785 136.84C266.952 136.687 268.136 136.883 269.185 137.404C270.235 137.924 271.104 138.746 271.683 139.764C272.261 140.783 272.523 141.953 272.436 143.126C272.348 144.3 271.915 145.424 271.191 146.357C270.709 146.978 270.111 147.499 269.43 147.89C268.749 148.281 267.999 148.534 267.222 148.636C266.446 148.737 265.658 148.685 264.905 148.482C264.151 148.278 263.447 147.928 262.831 147.451Z" fill="#EBF1CF"/>
        <path d="M242.224 163.753C242.304 163.345 242.478 162.961 242.732 162.631C242.987 162.301 243.314 162.034 243.689 161.852C243.92 161.725 244.182 161.668 244.444 161.69C244.705 161.711 244.954 161.81 245.158 161.973L246.234 162.767L243.78 165.936L242.744 165.141C242.532 164.987 242.369 164.773 242.277 164.526C242.184 164.28 242.166 164.011 242.224 163.753Z" fill="url(#paint32_linear)"/>
        <path d="M245.14 172.121C243.894 171.161 243.085 169.743 242.89 168.177C242.695 166.611 243.132 165.026 244.103 163.771C245.074 162.516 246.5 161.694 248.068 161.485C249.635 161.276 251.216 161.698 252.463 162.657C253.08 163.132 253.596 163.725 253.982 164.402C254.368 165.078 254.616 165.826 254.713 166.601C254.809 167.376 254.752 168.164 254.544 168.92C254.336 169.676 253.981 170.385 253.5 171.007C253.019 171.628 252.422 172.15 251.742 172.542C251.061 172.934 250.311 173.19 249.535 173.293C248.759 173.397 247.971 173.346 247.217 173.145C246.463 172.944 245.757 172.596 245.14 172.121Z" fill="#FFD74F"/>
        <path style="mix-blend-mode:color-dodge" d="M240.173 178.151C238.048 176.515 236.461 174.281 235.613 171.732C234.765 169.182 234.694 166.432 235.409 163.828C236.124 161.224 237.592 158.883 239.629 157.101C241.666 155.319 244.18 154.176 246.853 153.816C249.527 153.456 252.239 153.896 254.649 155.079C257.058 156.262 259.057 158.136 260.391 160.464C261.726 162.792 262.337 165.47 262.147 168.159C261.957 170.848 260.976 173.427 259.325 175.572C258.227 177 256.86 178.199 255.302 179.101C253.745 180.004 252.027 180.591 250.248 180.831C248.469 181.071 246.663 180.957 244.934 180.497C243.205 180.038 241.587 179.24 240.173 178.151Z" fill="url(#paint33_radial)"/>
        <path style="mix-blend-mode:color-dodge" opacity="0.24" d="M240.173 178.151C238.048 176.515 236.461 174.281 235.613 171.732C234.765 169.182 234.694 166.432 235.409 163.828C236.124 161.224 237.592 158.883 239.629 157.101C241.666 155.319 244.18 154.176 246.853 153.816C249.527 153.456 252.239 153.896 254.649 155.079C257.058 156.262 259.057 158.136 260.391 160.464C261.726 162.792 262.337 165.47 262.147 168.159C261.957 170.848 260.976 173.427 259.325 175.572C258.227 177 256.86 178.199 255.302 179.101C253.745 180.004 252.027 180.591 250.248 180.831C248.469 181.071 246.663 180.957 244.934 180.497C243.205 180.038 241.587 179.24 240.173 178.151Z" fill="url(#paint34_radial)"/>
        <path d="M224.172 187.566C224.245 187.156 224.417 186.769 224.672 186.438C224.927 186.106 225.258 185.841 225.637 185.665C225.868 185.538 226.13 185.481 226.392 185.503C226.653 185.524 226.902 185.623 227.106 185.786L228.162 186.56L225.728 189.749L224.693 188.954C224.49 188.791 224.335 188.576 224.244 188.332C224.152 188.089 224.128 187.824 224.172 187.566Z" fill="url(#paint35_linear)"/>
        <path d="M227.15 195.872C226.221 195.159 225.526 194.184 225.155 193.07C224.784 191.957 224.752 190.755 225.064 189.617C225.376 188.48 226.018 187.457 226.908 186.679C227.798 185.901 228.897 185.402 230.065 185.246C231.233 185.09 232.418 185.283 233.47 185.802C234.522 186.321 235.394 187.141 235.974 188.159C236.555 189.178 236.819 190.349 236.733 191.523C236.647 192.698 236.214 193.824 235.49 194.758C234.516 196.003 233.094 196.817 231.533 197.026C229.972 197.235 228.397 196.82 227.15 195.872Z" fill="#8EFF2B"/>
        <path style="mix-blend-mode:color-dodge" d="M222.812 202.29C220.658 200.677 219.036 198.458 218.152 195.911C217.269 193.365 217.163 190.607 217.848 187.986C218.534 185.365 219.98 183 222.003 181.189C224.026 179.378 226.536 178.203 229.214 177.813C231.893 177.423 234.619 177.835 237.049 178.998C239.478 180.16 241.502 182.021 242.863 184.343C244.224 186.666 244.861 189.347 244.694 192.046C244.528 194.745 243.564 197.342 241.926 199.507C240.843 200.944 239.489 202.156 237.942 203.074C236.395 203.992 234.685 204.597 232.91 204.856C231.134 205.114 229.329 205.021 227.596 204.58C225.864 204.14 224.238 203.362 222.812 202.29Z" fill="url(#paint36_radial)"/>
        <path style="mix-blend-mode:color-dodge" opacity="0.1" d="M222.812 202.29C220.658 200.677 219.036 198.458 218.152 195.911C217.269 193.365 217.163 190.607 217.848 187.986C218.534 185.365 219.98 183 222.003 181.189C224.026 179.378 226.536 178.203 229.214 177.813C231.893 177.423 234.619 177.835 237.049 178.998C239.478 180.16 241.502 182.021 242.863 184.343C244.224 186.666 244.861 189.347 244.694 192.046C244.528 194.745 243.564 197.342 241.926 199.507C240.843 200.944 239.489 202.156 237.942 203.074C236.395 203.992 234.685 204.597 232.91 204.856C231.134 205.114 229.329 205.021 227.596 204.58C225.864 204.14 224.238 203.362 222.812 202.29Z" fill="url(#paint37_radial)"/>
        <path d="M208.66 207.884C208.739 207.476 208.913 207.092 209.168 206.762C209.422 206.431 209.75 206.165 210.124 205.983C210.355 205.855 210.618 205.799 210.879 205.82C211.141 205.842 211.389 205.94 211.593 206.103L212.669 206.898L210.215 210.066L209.18 209.272C208.977 209.108 208.822 208.894 208.731 208.65C208.64 208.406 208.615 208.142 208.66 207.884Z" fill="url(#paint38_linear)"/>
        <path d="M211.637 216.19C210.712 215.472 210.023 214.495 209.657 213.381C209.29 212.267 209.264 211.066 209.58 209.93C209.896 208.795 210.541 207.775 211.433 207.001C212.324 206.226 213.424 205.731 214.591 205.579C215.759 205.426 216.942 205.622 217.992 206.143C219.041 206.663 219.91 207.485 220.489 208.503C221.067 209.522 221.33 210.691 221.242 211.865C221.155 213.038 220.721 214.163 219.997 215.096C219.516 215.717 218.917 216.238 218.236 216.629C217.555 217.02 216.805 217.273 216.028 217.375C215.252 217.476 214.464 217.424 213.711 217.221C212.957 217.017 212.253 216.667 211.637 216.19Z" fill="#FF4242"/>
        <path style="mix-blend-mode:color-dodge" opacity="0.61" d="M207.65 222.219C205.598 220.651 204.063 218.505 203.239 216.053C202.416 213.6 202.34 210.952 203.023 208.444C203.705 205.935 205.115 203.678 207.073 201.959C209.031 200.24 211.45 199.136 214.024 198.786C216.597 198.436 219.21 198.857 221.53 199.995C223.851 201.133 225.776 202.937 227.061 205.178C228.346 207.42 228.933 209.998 228.749 212.587C228.565 215.176 227.617 217.659 226.026 219.722C223.896 222.484 220.764 224.298 217.319 224.766C213.874 225.234 210.397 224.318 207.65 222.219Z" fill="url(#paint39_radial)"/>
        <path style="mix-blend-mode:color-dodge" opacity="0.3" d="M207.65 222.219C205.598 220.651 204.063 218.505 203.239 216.053C202.416 213.6 202.34 210.952 203.023 208.444C203.705 205.935 205.115 203.678 207.073 201.959C209.031 200.24 211.45 199.136 214.024 198.786C216.597 198.436 219.21 198.857 221.53 199.995C223.851 201.133 225.776 202.937 227.061 205.178C228.346 207.42 228.933 209.998 228.749 212.587C228.565 215.176 227.617 217.659 226.026 219.722C223.896 222.484 220.764 224.298 217.319 224.766C213.874 225.234 210.397 224.318 207.65 222.219Z" fill="url(#paint40_radial)"/>
        <path d="M191.59 228.775C191.663 228.365 191.835 227.977 192.09 227.646C192.345 227.315 192.676 227.05 193.055 226.874C193.303 226.716 193.596 226.645 193.887 226.67C194.179 226.696 194.453 226.817 194.667 227.015L195.722 227.789L193.309 230.957L192.253 230.183C192.021 230.035 191.836 229.825 191.719 229.576C191.601 229.327 191.557 229.049 191.59 228.775Z" fill="url(#paint41_linear)"/>
        <path d="M194.568 237.082C193.639 236.368 192.944 235.393 192.573 234.279C192.201 233.166 192.17 231.964 192.482 230.826C192.794 229.689 193.436 228.666 194.326 227.888C195.216 227.11 196.315 226.611 197.483 226.455C198.651 226.299 199.836 226.492 200.888 227.011C201.94 227.53 202.811 228.35 203.392 229.369C203.973 230.387 204.237 231.558 204.151 232.732C204.064 233.907 203.632 235.033 202.908 235.967C201.934 237.212 200.512 238.027 198.951 238.235C197.39 238.444 195.815 238.029 194.568 237.082Z" fill="#00F0E0"/>
        <path style="mix-blend-mode:color-dodge" d="M189.905 243.254C187.749 241.641 186.126 239.421 185.242 236.873C184.358 234.325 184.253 231.566 184.939 228.944C185.626 226.322 187.074 223.956 189.099 222.145C191.124 220.334 193.636 219.161 196.316 218.773C198.996 218.385 201.724 218.8 204.153 219.966C206.583 221.133 208.605 222.997 209.963 225.323C211.321 227.649 211.954 230.332 211.783 233.032C211.611 235.733 210.642 238.329 208.998 240.491C206.808 243.385 203.567 245.301 199.987 245.819C196.407 246.337 192.781 245.415 189.905 243.254Z" fill="url(#paint42_radial)"/>
        <path style="mix-blend-mode:color-dodge" d="M189.905 243.254C187.749 241.641 186.126 239.421 185.242 236.873C184.358 234.325 184.253 231.566 184.939 228.944C185.626 226.322 187.074 223.956 189.099 222.145C191.124 220.334 193.636 219.161 196.316 218.773C198.996 218.385 201.724 218.8 204.153 219.966C206.583 221.133 208.605 222.997 209.963 225.323C211.321 227.649 211.954 230.332 211.783 233.032C211.611 235.733 210.642 238.329 208.998 240.491C206.808 243.385 203.567 245.301 199.987 245.819C196.407 246.337 192.781 245.415 189.905 243.254Z" fill="url(#paint43_radial)"/>
        <path style="mix-blend-mode:color-dodge" d="M331.911 28.9281C329.539 27.6557 327.604 25.7048 326.35 23.3221C325.097 20.9395 324.583 18.2322 324.872 15.5429C325.161 12.8536 326.24 10.3031 327.974 8.21409C329.707 6.12513 332.016 4.5916 334.61 3.80755C337.203 3.0235 339.964 3.02418 342.542 3.80948C345.12 4.59478 347.401 6.12943 349.095 8.21922C350.789 10.309 351.821 12.86 352.059 15.5495C352.297 18.2389 351.732 20.9459 350.434 23.328C348.696 26.518 345.769 28.8994 342.296 29.9494C338.823 30.9994 335.088 30.6321 331.911 28.9281Z" fill="url(#paint44_radial)"/>
        <path style="mix-blend-mode:color-dodge" opacity="0.1" d="M331.911 28.9281C329.539 27.6557 327.604 25.7048 326.35 23.3221C325.097 20.9395 324.583 18.2322 324.872 15.5429C325.161 12.8536 326.24 10.3031 327.974 8.21409C329.707 6.12513 332.016 4.5916 334.61 3.80755C337.203 3.0235 339.964 3.02418 342.542 3.80948C345.12 4.59478 347.401 6.12943 349.095 8.21922C350.789 10.309 351.821 12.86 352.059 15.5495C352.297 18.2389 351.732 20.9459 350.434 23.328C348.696 26.518 345.769 28.8994 342.296 29.9494C338.823 30.9994 335.088 30.6321 331.911 28.9281Z" fill="url(#paint45_radial)"/>
        <path d="M331.371 14.3906C331.378 13.9754 331.485 13.5671 331.683 13.2005C331.882 12.834 332.166 12.5202 332.511 12.286C332.721 12.1211 332.976 12.0231 333.242 12.0045C333.508 11.9859 333.773 12.0477 334.002 12.1818L335.141 12.7928L333.255 16.2869L332.179 15.5737C331.948 15.4703 331.751 15.3053 331.608 15.0967C331.466 14.888 331.384 14.6438 331.371 14.3906Z" fill="url(#paint46_linear)"/>
        <path d="M335.599 22.1441C334.572 21.5798 333.739 20.7225 333.204 19.6805C332.669 18.6385 332.456 17.4585 332.593 16.2895C332.729 15.1205 333.209 14.015 333.971 13.1126C334.733 12.2102 335.743 11.5513 336.874 11.2192C338.005 10.8871 339.205 10.8967 340.325 11.2467C341.444 11.5968 342.431 12.2716 343.162 13.1859C343.893 14.1002 344.334 15.2131 344.43 16.3839C344.527 17.5547 344.274 18.731 343.703 19.7642C343.323 20.4521 342.812 21.0595 342.199 21.5515C341.586 22.0436 340.882 22.4107 340.129 22.6318C339.377 22.8529 338.589 22.9236 337.811 22.8399C337.034 22.7562 336.282 22.5198 335.599 22.1441Z" fill="#EBF1CF"/>
        <path d="M319.042 40.0537C319.072 39.6382 319.191 39.2331 319.391 38.8663C319.591 38.4995 319.868 38.1796 320.202 37.9286C320.417 37.781 320.668 37.6952 320.928 37.6804C321.187 37.6656 321.445 37.7225 321.673 37.8448L322.853 38.4557L320.947 41.9703L319.788 41.3389C319.556 41.2165 319.363 41.0313 319.231 40.8042C319.099 40.5771 319.034 40.3172 319.042 40.0537Z" fill="url(#paint47_linear)"/>
        <path d="M323.291 47.7861C322.264 47.2218 321.431 46.3645 320.896 45.3225C320.361 44.2805 320.148 43.1004 320.285 41.9315C320.421 40.7625 320.901 39.657 321.663 38.7545C322.424 37.8521 323.435 37.1933 324.566 36.8612C325.696 36.5291 326.897 36.5386 328.017 36.8887C329.136 37.2387 330.123 37.9135 330.854 38.8278C331.585 39.7421 332.026 40.855 332.122 42.0258C332.219 43.1967 331.966 44.373 331.395 45.4062C331.015 46.094 330.504 46.7014 329.891 47.1934C329.277 47.6855 328.574 48.0526 327.821 48.2737C327.068 48.4948 326.281 48.5655 325.503 48.4819C324.726 48.3982 323.974 48.1617 323.291 47.7861Z" fill="#FFD74F"/>
        <path style="mix-blend-mode:color-dodge" d="M319.38 54.4683C317.013 53.184 315.088 51.223 313.846 48.8335C312.605 46.444 312.104 43.7335 312.407 41.0449C312.71 38.3564 313.802 35.8109 315.547 33.7305C317.292 31.6501 319.61 30.1284 322.208 29.3581C324.805 28.5878 327.566 28.6035 330.141 29.4031C332.715 30.2028 334.988 31.7506 336.67 33.8504C338.353 35.9502 339.37 38.5078 339.593 41.1993C339.816 43.8908 339.234 46.5952 337.922 48.9702C337.059 50.5493 335.893 51.9448 334.492 53.0766C333.091 54.2085 331.483 55.0542 329.759 55.5651C328.036 56.0761 326.232 56.2423 324.451 56.054C322.669 55.8658 320.946 55.3269 319.38 54.4683Z" fill="url(#paint48_radial)"/>
        <path style="mix-blend-mode:color-dodge" opacity="0.24" d="M319.38 54.4683C317.013 53.184 315.088 51.223 313.846 48.8335C312.605 46.444 312.104 43.7335 312.407 41.0449C312.71 38.3564 313.802 35.8109 315.547 33.7305C317.292 31.6501 319.61 30.1284 322.208 29.3581C324.805 28.5878 327.566 28.6035 330.141 29.4031C332.715 30.2028 334.988 31.7506 336.67 33.8504C338.353 35.9502 339.37 38.5078 339.593 41.1993C339.816 43.8908 339.234 46.5952 337.922 48.9702C337.059 50.5493 335.893 51.9448 334.492 53.0766C333.091 54.2085 331.483 55.0542 329.759 55.5651C328.036 56.0761 326.232 56.2423 324.451 56.054C322.669 55.8658 320.946 55.3269 319.38 54.4683Z" fill="url(#paint49_radial)"/>
        <path d="M303.998 65.6995C304.028 65.284 304.147 64.879 304.347 64.5122C304.547 64.1454 304.824 63.8254 305.158 63.5744C305.371 63.4204 305.623 63.3307 305.883 63.3158C306.144 63.301 306.403 63.3617 306.629 63.4906L307.809 64.1015L305.903 67.6162L304.744 66.9848C304.516 66.8574 304.326 66.6711 304.195 66.4451C304.064 66.2192 303.996 65.9618 303.998 65.6995Z" fill="url(#paint50_linear)"/>
        <path d="M308.328 73.5546C307.301 72.9903 306.468 72.133 305.933 71.091C305.398 70.049 305.185 68.869 305.322 67.7C305.458 66.531 305.938 65.4255 306.7 64.5231C307.462 63.6207 308.472 62.9618 309.603 62.6297C310.734 62.2976 311.935 62.3072 313.054 62.6572C314.173 63.0072 315.16 63.682 315.891 64.5964C316.622 65.5107 317.063 66.6235 317.159 67.7944C317.256 68.9652 317.003 70.1415 316.432 71.1747C316.052 71.8626 315.541 72.4699 314.928 72.962C314.315 73.4541 313.611 73.8212 312.858 74.0423C312.106 74.2634 311.318 74.3341 310.54 74.2504C309.763 74.1667 309.011 73.9303 308.328 73.5546Z" fill="#8EFF2B"/>
        <path style="mix-blend-mode:color-dodge" d="M304.986 80.4815C302.609 79.2173 300.667 77.2729 299.406 74.8946C298.145 72.5162 297.621 69.8106 297.901 67.1203C298.18 64.43 299.251 61.8758 300.978 59.781C302.704 57.6862 305.009 56.1449 307.6 55.3522C310.19 54.5595 312.951 54.5509 315.532 55.3277C318.114 56.1044 320.399 57.6315 322.101 59.7157C323.802 61.7999 324.841 64.3476 325.089 67.0363C325.336 69.7249 324.779 72.4338 323.489 74.8201C322.636 76.4049 321.481 77.8089 320.089 78.9515C318.697 80.0941 317.096 80.953 315.377 81.4789C313.658 82.0048 311.856 82.1874 310.072 82.0162C308.289 81.8451 306.561 81.3235 304.986 80.4815Z" fill="url(#paint51_radial)"/>
        <path style="mix-blend-mode:color-dodge" opacity="0.1" d="M304.986 80.4815C302.609 79.2173 300.667 77.2729 299.406 74.8946C298.145 72.5162 297.621 69.8106 297.901 67.1203C298.18 64.43 299.251 61.8758 300.978 59.781C302.704 57.6862 305.009 56.1449 307.6 55.3522C310.19 54.5595 312.951 54.5509 315.532 55.3277C318.114 56.1044 320.399 57.6315 322.101 59.7157C323.802 61.7999 324.841 64.3476 325.089 67.0363C325.336 69.7249 324.779 72.4338 323.489 74.8201C322.636 76.4049 321.481 77.8089 320.089 78.9515C318.697 80.0941 317.096 80.953 315.377 81.4789C313.658 82.0048 311.856 82.1874 310.072 82.0162C308.289 81.8451 306.561 81.3235 304.986 80.4815Z" fill="url(#paint52_radial)"/>
        <path d="M292.203 88.4416C292.233 88.0261 292.352 87.6211 292.552 87.2543C292.752 86.8875 293.029 86.5675 293.363 86.3164C293.576 86.1625 293.828 86.0728 294.089 86.0579C294.349 86.043 294.608 86.1038 294.834 86.2327L296.014 86.8436L294.108 90.3582L292.949 89.7269C292.717 89.6045 292.524 89.4192 292.392 89.1921C292.26 88.965 292.195 88.7051 292.203 88.4416Z" fill="url(#paint53_linear)"/>
        <path d="M296.411 96.1744C295.384 95.6101 294.551 94.7528 294.016 93.7108C293.481 92.6688 293.268 91.4888 293.405 90.3198C293.541 89.1508 294.021 88.0453 294.783 87.1429C295.545 86.2404 296.555 85.5815 297.686 85.2495C298.817 84.9174 300.017 84.927 301.137 85.277C302.256 85.627 303.243 86.3018 303.974 87.2161C304.705 88.1304 305.146 89.2433 305.242 90.4142C305.339 91.585 305.086 92.7613 304.515 93.7945C304.135 94.4823 303.624 95.0897 303.011 95.5818C302.398 96.0738 301.694 96.4409 300.941 96.662C300.189 96.8831 299.401 96.9538 298.623 96.8702C297.846 96.7865 297.094 96.55 296.411 96.1744Z" fill="#FF4242"/>
        <path style="mix-blend-mode:color-dodge" opacity="0.61" d="M293.338 102.672C291.071 101.438 289.227 99.5574 288.038 97.2668C286.85 94.9762 286.369 92.3785 286.658 89.8016C286.947 87.2247 287.992 84.7842 289.662 82.7881C291.331 80.792 293.55 79.3298 296.039 78.5862C298.527 77.8425 301.173 77.8507 303.643 78.6096C306.113 79.3686 308.296 80.8443 309.916 82.8506C311.537 84.8568 312.522 87.3036 312.748 89.882C312.974 92.4605 312.43 95.055 311.185 97.3382C309.504 100.405 306.679 102.69 303.332 103.691C299.985 104.691 296.39 104.325 293.338 102.672Z" fill="url(#paint54_radial)"/>
        <path style="mix-blend-mode:color-dodge" opacity="0.3" d="M293.338 102.672C291.071 101.438 289.227 99.5574 288.038 97.2668C286.85 94.9762 286.369 92.3785 286.658 89.8016C286.947 87.2247 287.992 84.7842 289.662 82.7881C291.331 80.792 293.55 79.3298 296.039 78.5862C298.527 77.8425 301.173 77.8507 303.643 78.6096C306.113 79.3686 308.296 80.8443 309.916 82.8506C311.537 84.8568 312.522 87.3036 312.748 89.882C312.974 92.4605 312.43 95.055 311.185 97.3382C309.504 100.405 306.679 102.69 303.332 103.691C299.985 104.691 296.39 104.325 293.338 102.672Z" fill="url(#paint55_radial)"/>
        <path d="M275.672 113.58C275.693 113.163 275.81 112.756 276.015 112.39C276.22 112.025 276.507 111.712 276.852 111.475C277.059 111.319 277.307 111.226 277.564 111.207C277.822 111.189 278.079 111.246 278.303 111.371L279.483 111.982L277.577 115.496L276.418 114.865C276.181 114.748 275.984 114.564 275.851 114.336C275.719 114.107 275.657 113.845 275.672 113.58Z" fill="url(#paint56_linear)"/>
        <path d="M279.9 121.332C278.874 120.768 278.041 119.911 277.506 118.869C276.971 117.827 276.758 116.647 276.895 115.478C277.031 114.309 277.511 113.203 278.272 112.301C279.034 111.399 280.045 110.74 281.175 110.408C282.306 110.075 283.507 110.085 284.626 110.435C285.746 110.785 286.733 111.46 287.464 112.374C288.194 113.289 288.636 114.401 288.732 115.572C288.828 116.743 288.575 117.919 288.005 118.953C287.625 119.64 287.114 120.248 286.501 120.74C285.887 121.232 285.184 121.599 284.431 121.82C283.678 122.041 282.891 122.112 282.113 122.028C281.336 121.945 280.584 121.708 279.9 121.332Z" fill="#00F0E0"/>
        <path style="mix-blend-mode:color-dodge" d="M276.295 128.076C273.923 126.803 271.988 124.852 270.735 122.47C269.482 120.087 268.967 117.38 269.256 114.69C269.545 112.001 270.624 109.451 272.358 107.362C274.091 105.273 276.401 103.739 278.994 102.955C281.587 102.171 284.348 102.172 286.926 102.957C289.505 103.742 291.785 105.277 293.479 107.367C295.173 109.457 296.205 112.008 296.443 114.697C296.681 117.387 296.116 120.094 294.818 122.476C293.08 125.666 290.153 128.047 286.68 129.097C283.207 130.147 279.472 129.78 276.295 128.076Z" fill="url(#paint57_radial)"/>
        <path style="mix-blend-mode:color-dodge" d="M276.295 128.076C273.923 126.803 271.988 124.852 270.735 122.47C269.482 120.087 268.967 117.38 269.256 114.69C269.545 112.001 270.624 109.451 272.358 107.362C274.091 105.273 276.401 103.739 278.994 102.955C281.587 102.171 284.348 102.172 286.926 102.957C289.505 103.742 291.785 105.277 293.479 107.367C295.173 109.457 296.205 112.008 296.443 114.697C296.681 117.387 296.116 120.094 294.818 122.476C293.08 125.666 290.153 128.047 286.68 129.097C283.207 130.147 279.472 129.78 276.295 128.076Z" fill="url(#paint58_radial)"/>
        <path d="M342.693 -10.5561C341.959 -9.86079 341.417 -8.98722 341.122 -8.02202C340.722 -6.74931 340.762 -5.38315 341.235 -4.14389C341.708 -2.90463 342.585 -1.86453 343.727 -1.19138C344.868 -0.518232 346.207 -0.251283 347.526 -0.433583C348.846 -0.615882 350.069 -1.2368 351 -2.1962L342.693 -10.5561Z" fill="#00F0E0"/>
        <path style="mix-blend-mode:color-dodge" d="M337.284 -16.0001C334.708 -13.4404 333.245 -9.97171 333.217 -6.35692C333.188 -2.74213 334.597 0.722609 337.134 3.27507C339.67 5.82753 343.126 7.25863 346.741 7.25357C350.355 7.24851 353.833 5.80769 356.409 3.24807L337.284 -16.0001Z" fill="url(#paint59_radial)"/>
        <path style="mix-blend-mode:color-dodge" d="M337.284 -16.0001C334.708 -13.4404 333.245 -9.97171 333.217 -6.35692C333.188 -2.74213 334.597 0.722609 337.134 3.27507C339.67 5.82753 343.126 7.25863 346.741 7.25357C350.355 7.24851 353.833 5.80769 356.409 3.24807L337.284 -16.0001Z" fill="url(#paint60_radial)"/>
    </g>
    <defs>
        <radialGradient id="paint0_radial" cx="0" cy="0" r="1" gradientUnits="userSpaceOnUse" gradientTransform="translate(178.857 253.618) rotate(134.539) scale(13.7214 13.5961)">
            <stop stop-color="white"/>
            <stop offset="0.11" stop-color="#DBDBDB"/>
            <stop offset="0.36" stop-color="#8E8E8E"/>
            <stop offset="0.58" stop-color="#515151"/>
            <stop offset="0.77" stop-color="#252525"/>
            <stop offset="0.91" stop-color="#0A0A0A"/>
            <stop offset="1"/>
        </radialGradient>
        <radialGradient id="paint1_radial" cx="0" cy="0" r="1" gradientUnits="userSpaceOnUse" gradientTransform="translate(194.872 237.875) rotate(134.615) scale(13.7221 20.3958)">
            <stop stop-color="white"/>
            <stop offset="0.2" stop-color="#C1C1C1"/>
            <stop offset="0.49" stop-color="#6F6F6F"/>
            <stop offset="0.73" stop-color="#333333"/>
            <stop offset="0.91" stop-color="#0E0E0E"/>
            <stop offset="1"/>
        </radialGradient>
        <linearGradient id="paint2_linear" x1="175.813" y1="247.736" x2="173.006" y2="250.59" gradientUnits="userSpaceOnUse">
            <stop offset="0.03" stop-color="#030303"/>
            <stop offset="0.21"/>
            <stop offset="0.41" stop-color="#131313"/>
            <stop offset="0.6" stop-color="#292929"/>
            <stop offset="0.86"/>
            <stop offset="0.99" stop-color="#0F0F0F"/>
        </linearGradient>
        <linearGradient id="paint3_linear" x1="899.857" y1="176.081" x2="903.777" y2="172.186" gradientUnits="userSpaceOnUse">
            <stop offset="0.03" stop-color="#030303"/>
            <stop offset="0.21"/>
            <stop offset="0.41" stop-color="#131313"/>
            <stop offset="0.6" stop-color="#292929"/>
            <stop offset="0.86"/>
            <stop offset="0.99" stop-color="#0F0F0F"/>
        </linearGradient>
        <radialGradient id="paint4_radial" cx="0" cy="0" r="1" gradientUnits="userSpaceOnUse" gradientTransform="translate(160.19 275.544) rotate(134.615) scale(13.7221 13.5968)">
            <stop offset="0.23" stop-color="#FFDD00"/>
            <stop offset="0.36" stop-color="#C3A900"/>
            <stop offset="0.52" stop-color="#7F6E00"/>
            <stop offset="0.66" stop-color="#483E00"/>
            <stop offset="0.79" stop-color="#211C00"/>
            <stop offset="0.88" stop-color="#090800"/>
            <stop offset="0.94"/>
        </radialGradient>
        <radialGradient id="paint5_radial" cx="0" cy="0" r="1" gradientUnits="userSpaceOnUse" gradientTransform="translate(156.031 279.685) rotate(134.615) scale(13.7221 20.3945)">
            <stop stop-color="#FFDD00"/>
            <stop offset="0.07" stop-color="#E3C500"/>
            <stop offset="0.29" stop-color="#948000"/>
            <stop offset="0.49" stop-color="#544900"/>
            <stop offset="0.65" stop-color="#272100"/>
            <stop offset="0.78" stop-color="#0A0900"/>
            <stop offset="0.85"/>
        </radialGradient>
        <linearGradient id="paint6_linear" x1="907.959" y1="168.466" x2="911.85" y2="164.599" gradientUnits="userSpaceOnUse">
            <stop offset="0.03" stop-color="#030303"/>
            <stop offset="0.21"/>
            <stop offset="0.41" stop-color="#131313"/>
            <stop offset="0.6" stop-color="#292929"/>
            <stop offset="0.86"/>
            <stop offset="0.99" stop-color="#0F0F0F"/>
        </linearGradient>
        <radialGradient id="paint7_radial" cx="0" cy="0" r="1" gradientUnits="userSpaceOnUse" gradientTransform="translate(140.132 294.608) rotate(134.311) scale(13.7214 13.5961)">
            <stop stop-color="#04FF00"/>
            <stop offset="0.2" stop-color="#03BD00"/>
            <stop offset="0.41" stop-color="#027B00"/>
            <stop offset="0.61" stop-color="#014600"/>
            <stop offset="0.78" stop-color="#002000"/>
            <stop offset="0.91" stop-color="#000900"/>
            <stop offset="1"/>
        </radialGradient>
        <radialGradient id="paint8_radial" cx="0" cy="0" r="1" gradientUnits="userSpaceOnUse" gradientTransform="translate(127.194 315.27) rotate(134.047) scale(13.7241 20.3955)">
            <stop stop-color="#04FF00"/>
            <stop offset="0.48" stop-color="#015F00"/>
            <stop offset="0.77"/>
        </radialGradient>
        <linearGradient id="paint9_linear" x1="915.392" y1="161.567" x2="919.282" y2="157.701" gradientUnits="userSpaceOnUse">
            <stop offset="0.03" stop-color="#030303"/>
            <stop offset="0.21"/>
            <stop offset="0.41" stop-color="#131313"/>
            <stop offset="0.6" stop-color="#292929"/>
            <stop offset="0.86"/>
            <stop offset="0.99" stop-color="#0F0F0F"/>
        </linearGradient>
        <radialGradient id="paint10_radial" cx="0" cy="0" r="1" gradientUnits="userSpaceOnUse" gradientTransform="translate(120.967 313.768) rotate(134.786) scale(13.1702 13.0499)">
            <stop stop-color="#FF0000"/>
            <stop offset="0.62" stop-color="#5F0000"/>
            <stop offset="1"/>
        </radialGradient>
        <radialGradient id="paint11_radial" cx="0" cy="0" r="1" gradientUnits="userSpaceOnUse" gradientTransform="translate(120.967 313.768) rotate(134.786) scale(13.1702 13.0499)">
            <stop stop-color="#FF0000"/>
            <stop offset="0.62" stop-color="#5F0000"/>
            <stop offset="1"/>
        </radialGradient>
        <linearGradient id="paint12_linear" x1="921.953" y1="161.161" x2="925.816" y2="157.323" gradientUnits="userSpaceOnUse">
            <stop offset="0.03" stop-color="#030303"/>
            <stop offset="0.21"/>
            <stop offset="0.41" stop-color="#131313"/>
            <stop offset="0.6" stop-color="#292929"/>
            <stop offset="0.86"/>
            <stop offset="0.99" stop-color="#0F0F0F"/>
        </linearGradient>
        <radialGradient id="paint13_radial" cx="0" cy="0" r="1" gradientUnits="userSpaceOnUse" gradientTransform="translate(100.972 330.919) rotate(134.499) scale(13.7214 13.5961)">
            <stop offset="0.2" stop-color="#00D9FF"/>
            <stop offset="0.28" stop-color="#00BADB"/>
            <stop offset="0.45" stop-color="#00798E"/>
            <stop offset="0.61" stop-color="#004551"/>
            <stop offset="0.74" stop-color="#002025"/>
            <stop offset="0.84" stop-color="#00090A"/>
            <stop offset="0.9"/>
        </radialGradient>
        <radialGradient id="paint14_radial" cx="0" cy="0" r="1" gradientUnits="userSpaceOnUse" gradientTransform="translate(111.079 321.84) rotate(134.615) scale(13.722 20.3958)">
            <stop stop-color="#004CFF"/>
            <stop offset="0.25" stop-color="#0031A4"/>
            <stop offset="0.51" stop-color="#00174C"/>
            <stop offset="0.69" stop-color="#000615"/>
            <stop offset="0.78"/>
        </radialGradient>
        <radialGradient id="paint15_radial" cx="0" cy="0" r="1" gradientUnits="userSpaceOnUse" gradientTransform="translate(-6334.03 160.804) rotate(141.336) scale(129.805 128.633)">
            <stop stop-color="white"/>
            <stop offset="0.11" stop-color="#DBDBDB"/>
            <stop offset="0.36" stop-color="#8E8E8E"/>
            <stop offset="0.58" stop-color="#515151"/>
            <stop offset="0.77" stop-color="#252525"/>
            <stop offset="0.91" stop-color="#0A0A0A"/>
            <stop offset="1"/>
        </radialGradient>
        <radialGradient id="paint16_radial" cx="0" cy="0" r="1" gradientUnits="userSpaceOnUse" gradientTransform="translate(54858 76689.9) rotate(141.465) scale(129.297 192.764)">
            <stop stop-color="white"/>
            <stop offset="0.2" stop-color="#C1C1C1"/>
            <stop offset="0.49" stop-color="#6F6F6F"/>
            <stop offset="0.73" stop-color="#333333"/>
            <stop offset="0.91" stop-color="#0E0E0E"/>
            <stop offset="1"/>
        </radialGradient>
        <linearGradient id="paint17_linear" x1="-378.942" y1="576.571" x2="-383.331" y2="580.069" gradientUnits="userSpaceOnUse">
            <stop offset="0.03" stop-color="#030303"/>
            <stop offset="0.21"/>
            <stop offset="0.41" stop-color="#131313"/>
            <stop offset="0.6" stop-color="#292929"/>
            <stop offset="0.86"/>
            <stop offset="0.99" stop-color="#0F0F0F"/>
        </linearGradient>
        <linearGradient id="paint18_linear" x1="-373.162" y1="577.998" x2="-377.466" y2="581.427" gradientUnits="userSpaceOnUse">
            <stop offset="0.03" stop-color="#030303"/>
            <stop offset="0.21"/>
            <stop offset="0.41" stop-color="#131313"/>
            <stop offset="0.6" stop-color="#292929"/>
            <stop offset="0.86"/>
            <stop offset="0.99" stop-color="#0F0F0F"/>
        </linearGradient>
        <radialGradient id="paint19_radial" cx="0" cy="0" r="1" gradientUnits="userSpaceOnUse" gradientTransform="translate(-5568.16 -1605.54) rotate(141.564) scale(129.776 128.634)">
            <stop offset="0.23" stop-color="#FFDD00"/>
            <stop offset="0.36" stop-color="#C3A900"/>
            <stop offset="0.52" stop-color="#7F6E00"/>
            <stop offset="0.66" stop-color="#483E00"/>
            <stop offset="0.79" stop-color="#211C00"/>
            <stop offset="0.88" stop-color="#090800"/>
            <stop offset="0.94"/>
        </radialGradient>
        <radialGradient id="paint20_radial" cx="0" cy="0" r="1" gradientUnits="userSpaceOnUse" gradientTransform="translate(55171.1 75413.9) rotate(141.465) scale(129.269 192.906)">
            <stop stop-color="#FFDD00"/>
            <stop offset="0.07" stop-color="#E3C500"/>
            <stop offset="0.29" stop-color="#948000"/>
            <stop offset="0.49" stop-color="#544900"/>
            <stop offset="0.65" stop-color="#272100"/>
            <stop offset="0.78" stop-color="#0A0900"/>
            <stop offset="0.85"/>
        </radialGradient>
        <linearGradient id="paint21_linear" x1="-403.132" y1="604.167" x2="-407.551" y2="607.688" gradientUnits="userSpaceOnUse">
            <stop offset="0.03" stop-color="#030303"/>
            <stop offset="0.21"/>
            <stop offset="0.41" stop-color="#131313"/>
            <stop offset="0.6" stop-color="#292929"/>
            <stop offset="0.86"/>
            <stop offset="0.99" stop-color="#0F0F0F"/>
        </linearGradient>
        <radialGradient id="paint22_radial" cx="0" cy="0" r="1" gradientUnits="userSpaceOnUse" gradientTransform="translate(-6263.56 6386.03) rotate(140.898) scale(129.136 127.992)">
            <stop stop-color="#04FF00"/>
            <stop offset="0.2" stop-color="#03BD00"/>
            <stop offset="0.41" stop-color="#027B00"/>
            <stop offset="0.61" stop-color="#014600"/>
            <stop offset="0.78" stop-color="#002000"/>
            <stop offset="0.91" stop-color="#000900"/>
            <stop offset="1"/>
        </radialGradient>
        <radialGradient id="paint23_radial" cx="0" cy="0" r="1" gradientUnits="userSpaceOnUse" gradientTransform="translate(54919.3 82990.2) rotate(140.898) scale(129.136 192.758)">
            <stop stop-color="#04FF00"/>
            <stop offset="0.48" stop-color="#015F00"/>
            <stop offset="0.77"/>
        </radialGradient>
        <linearGradient id="paint24_linear" x1="-381.6" y1="590.712" x2="-385.836" y2="594.088" gradientUnits="userSpaceOnUse">
            <stop offset="0.03" stop-color="#030303"/>
            <stop offset="0.21"/>
            <stop offset="0.41" stop-color="#131313"/>
            <stop offset="0.6" stop-color="#292929"/>
            <stop offset="0.86"/>
            <stop offset="0.99" stop-color="#0F0F0F"/>
        </linearGradient>
        <radialGradient id="paint25_radial" cx="0" cy="0" r="1" gradientUnits="userSpaceOnUse" gradientTransform="translate(-3551.3 -744.305) rotate(141.594) scale(119.295 118.246)">
            <stop stop-color="#FF0000"/>
            <stop offset="0.62" stop-color="#5F0000"/>
            <stop offset="1"/>
        </radialGradient>
        <radialGradient id="paint26_radial" cx="0" cy="0" r="1" gradientUnits="userSpaceOnUse" gradientTransform="translate(-3551.3 -744.305) rotate(141.594) scale(119.295 118.246)">
            <stop stop-color="#FF0000"/>
            <stop offset="0.62" stop-color="#5F0000"/>
            <stop offset="1"/>
        </radialGradient>
        <radialGradient id="paint27_radial" cx="0" cy="0" r="1" gradientUnits="userSpaceOnUse" gradientTransform="translate(-3457.67 -1273.57) rotate(141.465) scale(129.269 128.13)">
            <stop offset="0.2" stop-color="#00D9FF"/>
            <stop offset="0.28" stop-color="#00BADB"/>
            <stop offset="0.45" stop-color="#00798E"/>
            <stop offset="0.61" stop-color="#004551"/>
            <stop offset="0.74" stop-color="#002025"/>
            <stop offset="0.84" stop-color="#00090A"/>
            <stop offset="0.9"/>
        </radialGradient>
        <radialGradient id="paint28_radial" cx="0" cy="0" r="1" gradientUnits="userSpaceOnUse" gradientTransform="translate(57720.7 75285.9) rotate(141.465) scale(129.269 192.764)">
            <stop stop-color="#004CFF"/>
            <stop offset="0.25" stop-color="#0031A4"/>
            <stop offset="0.51" stop-color="#00174C"/>
            <stop offset="0.69" stop-color="#000615"/>
            <stop offset="0.78"/>
        </radialGradient>
        <radialGradient id="paint29_radial" cx="0" cy="0" r="1" gradientUnits="userSpaceOnUse" gradientTransform="translate(-4726.83 -145.027) rotate(127.354) scale(129.782 128.659)">
            <stop stop-color="white"/>
            <stop offset="0.11" stop-color="#DBDBDB"/>
            <stop offset="0.36" stop-color="#8E8E8E"/>
            <stop offset="0.58" stop-color="#515151"/>
            <stop offset="0.77" stop-color="#252525"/>
            <stop offset="0.91" stop-color="#0A0A0A"/>
            <stop offset="1"/>
        </radialGradient>
        <radialGradient id="paint30_radial" cx="0" cy="0" r="1" gradientUnits="userSpaceOnUse" gradientTransform="translate(73836.5 59197.8) rotate(127.206) scale(129.762 193.598)">
            <stop stop-color="white"/>
            <stop offset="0.2" stop-color="#C1C1C1"/>
            <stop offset="0.49" stop-color="#6F6F6F"/>
            <stop offset="0.73" stop-color="#333333"/>
            <stop offset="0.91" stop-color="#0E0E0E"/>
            <stop offset="1"/>
        </radialGradient>
        <linearGradient id="paint31_linear" x1="-224.069" y1="613.721" x2="-227.538" y2="618.289" gradientUnits="userSpaceOnUse">
            <stop offset="0.03" stop-color="#030303"/>
            <stop offset="0.21"/>
            <stop offset="0.41" stop-color="#131313"/>
            <stop offset="0.6" stop-color="#292929"/>
            <stop offset="0.86"/>
            <stop offset="0.99" stop-color="#0F0F0F"/>
        </linearGradient>
        <linearGradient id="paint32_linear" x1="-233.447" y1="624.826" x2="-236.898" y2="629.37" gradientUnits="userSpaceOnUse">
            <stop offset="0.03" stop-color="#030303"/>
            <stop offset="0.21"/>
            <stop offset="0.41" stop-color="#131313"/>
            <stop offset="0.6" stop-color="#292929"/>
            <stop offset="0.86"/>
            <stop offset="0.99" stop-color="#0F0F0F"/>
        </linearGradient>
        <radialGradient id="paint33_radial" cx="0" cy="0" r="1" gradientUnits="userSpaceOnUse" gradientTransform="translate(-4411.46 -2066.07) rotate(127.572) scale(129.509 128.368)">
            <stop offset="0.23" stop-color="#FFDD00"/>
            <stop offset="0.36" stop-color="#C3A900"/>
            <stop offset="0.52" stop-color="#7F6E00"/>
            <stop offset="0.66" stop-color="#483E00"/>
            <stop offset="0.79" stop-color="#211C00"/>
            <stop offset="0.88" stop-color="#090800"/>
            <stop offset="0.94"/>
        </radialGradient>
        <radialGradient id="paint34_radial" cx="0" cy="0" r="1" gradientUnits="userSpaceOnUse" gradientTransform="translate(73472.8 57631.7) rotate(127.769) scale(129.316 192.981)">
            <stop stop-color="#FFDD00"/>
            <stop offset="0.07" stop-color="#E3C500"/>
            <stop offset="0.29" stop-color="#948000"/>
            <stop offset="0.49" stop-color="#544900"/>
            <stop offset="0.65" stop-color="#272100"/>
            <stop offset="0.78" stop-color="#0A0900"/>
            <stop offset="0.85"/>
        </radialGradient>
        <linearGradient id="paint35_linear" x1="-245.423" y1="631.101" x2="-248.867" y2="635.636" gradientUnits="userSpaceOnUse">
            <stop offset="0.03" stop-color="#030303"/>
            <stop offset="0.21"/>
            <stop offset="0.41" stop-color="#131313"/>
            <stop offset="0.6" stop-color="#292929"/>
            <stop offset="0.86"/>
            <stop offset="0.99" stop-color="#0F0F0F"/>
        </linearGradient>
        <radialGradient id="paint36_radial" cx="0" cy="0" r="1" gradientUnits="userSpaceOnUse" gradientTransform="translate(-3190.95 5860.85) rotate(127.206) scale(129.762 128.64)">
            <stop stop-color="#04FF00"/>
            <stop offset="0.2" stop-color="#03BD00"/>
            <stop offset="0.41" stop-color="#027B00"/>
            <stop offset="0.61" stop-color="#014600"/>
            <stop offset="0.78" stop-color="#002000"/>
            <stop offset="0.91" stop-color="#000900"/>
            <stop offset="1"/>
        </radialGradient>
        <radialGradient id="paint37_radial" cx="0" cy="0" r="1" gradientUnits="userSpaceOnUse" gradientTransform="translate(74847.7 64774.5) rotate(127.206) scale(129.762 192.324)">
            <stop stop-color="#04FF00"/>
            <stop offset="0.48" stop-color="#015F00"/>
            <stop offset="0.77"/>
        </radialGradient>
        <linearGradient id="paint38_linear" x1="-253.715" y1="638.983" x2="-257.184" y2="643.551" gradientUnits="userSpaceOnUse">
            <stop offset="0.03" stop-color="#030303"/>
            <stop offset="0.21"/>
            <stop offset="0.41" stop-color="#131313"/>
            <stop offset="0.6" stop-color="#292929"/>
            <stop offset="0.86"/>
            <stop offset="0.99" stop-color="#0F0F0F"/>
        </linearGradient>
        <radialGradient id="paint39_radial" cx="0" cy="0" r="1" gradientUnits="userSpaceOnUse" gradientTransform="translate(-2288.46 -1669.31) rotate(127.769) scale(119.388 118.334)">
            <stop stop-color="#FF0000"/>
            <stop offset="0.62" stop-color="#5F0000"/>
            <stop offset="1"/>
        </radialGradient>
        <radialGradient id="paint40_radial" cx="0" cy="0" r="1" gradientUnits="userSpaceOnUse" gradientTransform="translate(-2288.46 -1669.31) rotate(127.769) scale(119.388 118.334)">
            <stop stop-color="#FF0000"/>
            <stop offset="0.62" stop-color="#5F0000"/>
            <stop offset="1"/>
        </radialGradient>
        <linearGradient id="paint41_linear" x1="-282.972" y1="636.059" x2="-286.438" y2="640.623" gradientUnits="userSpaceOnUse">
            <stop offset="0.03" stop-color="#030303"/>
            <stop offset="0.21"/>
            <stop offset="0.41" stop-color="#131313"/>
            <stop offset="0.6" stop-color="#292929"/>
            <stop offset="0.86"/>
            <stop offset="0.99" stop-color="#0F0F0F"/>
        </linearGradient>
        <radialGradient id="paint42_radial" cx="0" cy="0" r="1" gradientUnits="userSpaceOnUse" gradientTransform="translate(-2297.37 -2228.78) rotate(127.304) scale(129.782 128.659)">
            <stop offset="0.2" stop-color="#00D9FF"/>
            <stop offset="0.28" stop-color="#00BADB"/>
            <stop offset="0.45" stop-color="#00798E"/>
            <stop offset="0.61" stop-color="#004551"/>
            <stop offset="0.74" stop-color="#002025"/>
            <stop offset="0.84" stop-color="#00090A"/>
            <stop offset="0.9"/>
        </radialGradient>
        <radialGradient id="paint43_radial" cx="0" cy="0" r="1" gradientUnits="userSpaceOnUse" gradientTransform="translate(76260.9 57136.6) rotate(127.206) scale(129.762 193.597)">
            <stop stop-color="#004CFF"/>
            <stop offset="0.25" stop-color="#0031A4"/>
            <stop offset="0.51" stop-color="#00174C"/>
            <stop offset="0.69" stop-color="#000615"/>
            <stop offset="0.78"/>
        </radialGradient>
        <radialGradient id="paint44_radial" cx="0" cy="0" r="1" gradientUnits="userSpaceOnUse" gradientTransform="translate(-4485.53 -740.405) rotate(118.557) scale(129.706 128.716)">
            <stop stop-color="white"/>
            <stop offset="0.11" stop-color="#DBDBDB"/>
            <stop offset="0.36" stop-color="#8E8E8E"/>
            <stop offset="0.58" stop-color="#515151"/>
            <stop offset="0.77" stop-color="#252525"/>
            <stop offset="0.91" stop-color="#0A0A0A"/>
            <stop offset="1"/>
        </radialGradient>
        <radialGradient id="paint45_radial" cx="0" cy="0" r="1" gradientUnits="userSpaceOnUse" gradientTransform="translate(82042.3 46098.6) rotate(118.519) scale(130.075 193.439)">
            <stop stop-color="white"/>
            <stop offset="0.2" stop-color="#C1C1C1"/>
            <stop offset="0.49" stop-color="#6F6F6F"/>
            <stop offset="0.73" stop-color="#333333"/>
            <stop offset="0.91" stop-color="#0E0E0E"/>
            <stop offset="1"/>
        </radialGradient>
        <linearGradient id="paint46_linear" x1="-126.555" y1="610.318" x2="-129.266" y2="615.362" gradientUnits="userSpaceOnUse">
            <stop offset="0.03" stop-color="#030303"/>
            <stop offset="0.21"/>
            <stop offset="0.41" stop-color="#131313"/>
            <stop offset="0.6" stop-color="#292929"/>
            <stop offset="0.86"/>
            <stop offset="0.99" stop-color="#0F0F0F"/>
        </linearGradient>
        <linearGradient id="paint47_linear" x1="-144.653" y1="622.544" x2="-147.442" y2="627.73" gradientUnits="userSpaceOnUse">
            <stop offset="0.03" stop-color="#030303"/>
            <stop offset="0.21"/>
            <stop offset="0.41" stop-color="#131313"/>
            <stop offset="0.6" stop-color="#292929"/>
            <stop offset="0.86"/>
            <stop offset="0.99" stop-color="#0F0F0F"/>
        </linearGradient>
        <radialGradient id="paint48_radial" cx="0" cy="0" r="1" gradientUnits="userSpaceOnUse" gradientTransform="translate(-4475.84 -2696.58) rotate(118.776) scale(129.708 128.78)">
            <stop offset="0.23" stop-color="#FFDD00"/>
            <stop offset="0.36" stop-color="#C3A900"/>
            <stop offset="0.52" stop-color="#7F6E00"/>
            <stop offset="0.66" stop-color="#483E00"/>
            <stop offset="0.79" stop-color="#211C00"/>
            <stop offset="0.88" stop-color="#090800"/>
            <stop offset="0.94"/>
        </radialGradient>
        <radialGradient id="paint49_radial" cx="0" cy="0" r="1" gradientUnits="userSpaceOnUse" gradientTransform="translate(81879.9 44167.6) rotate(118.776) scale(129.708 193.17)">
            <stop stop-color="#FFDD00"/>
            <stop offset="0.07" stop-color="#E3C500"/>
            <stop offset="0.29" stop-color="#948000"/>
            <stop offset="0.49" stop-color="#544900"/>
            <stop offset="0.65" stop-color="#272100"/>
            <stop offset="0.78" stop-color="#0A0900"/>
            <stop offset="0.85"/>
        </radialGradient>
        <linearGradient id="paint50_linear" x1="-159.246" y1="631.316" x2="-162.03" y2="636.493" gradientUnits="userSpaceOnUse">
            <stop offset="0.03" stop-color="#030303"/>
            <stop offset="0.21"/>
            <stop offset="0.41" stop-color="#131313"/>
            <stop offset="0.6" stop-color="#292929"/>
            <stop offset="0.86"/>
            <stop offset="0.99" stop-color="#0F0F0F"/>
        </linearGradient>
        <radialGradient id="paint51_radial" cx="0" cy="0" r="1" gradientUnits="userSpaceOnUse" gradientTransform="translate(-2054.49 4951.9) rotate(118.319) scale(129.704 128.753)">
            <stop stop-color="#04FF00"/>
            <stop offset="0.2" stop-color="#03BD00"/>
            <stop offset="0.41" stop-color="#027B00"/>
            <stop offset="0.61" stop-color="#014600"/>
            <stop offset="0.78" stop-color="#002000"/>
            <stop offset="0.91" stop-color="#000900"/>
            <stop offset="1"/>
        </radialGradient>
        <radialGradient id="paint52_radial" cx="0" cy="0" r="1" gradientUnits="userSpaceOnUse" gradientTransform="translate(84482.3 50817.6) rotate(118.519) scale(130.075 192.629)">
            <stop stop-color="#04FF00"/>
            <stop offset="0.48" stop-color="#015F00"/>
            <stop offset="0.77"/>
        </radialGradient>
        <linearGradient id="paint53_linear" x1="-172.276" y1="639.892" x2="-175.045" y2="645.04" gradientUnits="userSpaceOnUse">
            <stop offset="0.03" stop-color="#030303"/>
            <stop offset="0.21"/>
            <stop offset="0.41" stop-color="#131313"/>
            <stop offset="0.6" stop-color="#292929"/>
            <stop offset="0.86"/>
            <stop offset="0.99" stop-color="#0F0F0F"/>
        </linearGradient>
        <radialGradient id="paint54_radial" cx="0" cy="0" r="1" gradientUnits="userSpaceOnUse" gradientTransform="translate(-2346.35 -2556.38) rotate(118.805) scale(119.498 118.549)">
            <stop stop-color="#FF0000"/>
            <stop offset="0.62" stop-color="#5F0000"/>
            <stop offset="1"/>
        </radialGradient>
        <radialGradient id="paint55_radial" cx="0" cy="0" r="1" gradientUnits="userSpaceOnUse" gradientTransform="translate(-2346.35 -2556.38) rotate(118.805) scale(119.498 118.549)">
            <stop stop-color="#FF0000"/>
            <stop offset="0.62" stop-color="#5F0000"/>
            <stop offset="1"/>
        </radialGradient>
        <linearGradient id="paint56_linear" x1="-185.73" y1="650.083" x2="-188.504" y2="655.242" gradientUnits="userSpaceOnUse">
            <stop offset="0.03" stop-color="#030303"/>
            <stop offset="0.21"/>
            <stop offset="0.41" stop-color="#131313"/>
            <stop offset="0.6" stop-color="#292929"/>
            <stop offset="0.86"/>
            <stop offset="0.99" stop-color="#0F0F0F"/>
        </linearGradient>
        <radialGradient id="paint57_radial" cx="0" cy="0" r="1" gradientUnits="userSpaceOnUse" gradientTransform="translate(-2458.91 -3153.18) rotate(118.508) scale(129.705 128.717)">
            <stop offset="0.2" stop-color="#00D9FF"/>
            <stop offset="0.28" stop-color="#00BADB"/>
            <stop offset="0.45" stop-color="#00798E"/>
            <stop offset="0.61" stop-color="#004551"/>
            <stop offset="0.74" stop-color="#002025"/>
            <stop offset="0.84" stop-color="#00090A"/>
            <stop offset="0.9"/>
        </radialGradient>
        <radialGradient id="paint58_radial" cx="0" cy="0" r="1" gradientUnits="userSpaceOnUse" gradientTransform="translate(84067.5 43648.1) rotate(118.519) scale(130.075 193.439)">
            <stop stop-color="#004CFF"/>
            <stop offset="0.25" stop-color="#0031A4"/>
            <stop offset="0.51" stop-color="#00174C"/>
            <stop offset="0.69" stop-color="#000615"/>
            <stop offset="0.78"/>
        </radialGradient>
        <radialGradient id="paint59_radial" cx="0" cy="0" r="1" gradientUnits="userSpaceOnUse" gradientTransform="translate(-3918.1 -2043.24) rotate(106.405) scale(64.6264 128.622)">
            <stop offset="0.2" stop-color="#00D9FF"/>
            <stop offset="0.28" stop-color="#00BADB"/>
            <stop offset="0.45" stop-color="#00798E"/>
            <stop offset="0.61" stop-color="#004551"/>
            <stop offset="0.74" stop-color="#002025"/>
            <stop offset="0.84" stop-color="#00090A"/>
            <stop offset="0.9"/>
        </radialGradient>
        <radialGradient id="paint60_radial" cx="0" cy="0" r="1" gradientUnits="userSpaceOnUse" gradientTransform="translate(90450.5 24697.2) rotate(106.518) scale(64.2157 192.885)">
            <stop stop-color="#004CFF"/>
            <stop offset="0.25" stop-color="#0031A4"/>
            <stop offset="0.51" stop-color="#00174C"/>
            <stop offset="0.69" stop-color="#000615"/>
            <stop offset="0.78"/>
        </radialGradient>
        <clipPath id="clip0">
            <rect width="725" height="95" fill="white" transform="translate(-177 495.016) rotate(-44.8174)"/>
        </clipPath>
    </defs>
</svg>